<svg width="131" height="23" viewBox="0 0 131 23" fill="none" xmlns="http://www.w3.org/2000/svg">
<g clip-path="url(#clip0_110_399)">
<path d="M20.1306 8.41927C20.0729 8.24946 19.9668 8.10025 19.8253 7.99006C19.6838 7.87987 19.5132 7.81353 19.3344 7.79922L14.1053 7.38371L11.8424 2.3747C11.7704 2.21337 11.6532 2.07634 11.5049 1.98016C11.3567 1.88397 11.1838 1.83274 11.0071 1.83264C10.8304 1.83254 10.6575 1.88359 10.5092 1.97961C10.3608 2.07563 10.2435 2.21253 10.1712 2.37378L7.90842 7.38371L2.67927 7.79922C2.50358 7.81314 2.33562 7.87738 2.19548 7.98425C2.05534 8.09113 1.94896 8.23612 1.88907 8.40187C1.82917 8.56762 1.8183 8.74712 1.85774 8.91889C1.89719 9.09066 1.98529 9.24743 2.1115 9.37044L5.97581 13.1375L4.60913 19.0555C4.56763 19.2347 4.58093 19.4221 4.6473 19.5936C4.71368 19.7651 4.83006 19.9127 4.98135 20.0172C5.13263 20.1217 5.31184 20.1783 5.49571 20.1797C5.67959 20.1811 5.85964 20.1272 6.0125 20.025L11.0068 16.6955L16.0012 20.025C16.1574 20.1288 16.3417 20.1822 16.5292 20.1781C16.7167 20.1739 16.8984 20.1125 17.0499 20.002C17.2015 19.8916 17.3156 19.7373 17.3768 19.5601C17.4381 19.3828 17.4436 19.1911 17.3926 19.0106L15.715 13.1403L19.8756 9.39612C20.148 9.15031 20.248 8.7669 20.1306 8.41927Z" fill="#E77C40"/>
<path d="M47.1457 8.41927C47.0881 8.24946 46.9819 8.10025 46.8404 7.99006C46.699 7.87987 46.5283 7.81353 46.3495 7.79922L41.1204 7.38371L38.8576 2.3747C38.7855 2.21337 38.6683 2.07634 38.5201 1.98016C38.3719 1.88397 38.199 1.83274 38.0223 1.83264C37.8456 1.83254 37.6726 1.88359 37.5243 1.97961C37.376 2.07563 37.2586 2.21253 37.1864 2.37378L34.9236 7.38371L29.6944 7.79922C29.5187 7.81314 29.3508 7.87738 29.2106 7.98425C29.0705 8.09113 28.9641 8.23612 28.9042 8.40187C28.8443 8.56762 28.8334 8.74712 28.8729 8.91889C28.9123 9.09066 29.0004 9.24743 29.1266 9.37044L32.9909 13.1375L31.6243 19.0555C31.5828 19.2347 31.5961 19.4221 31.6624 19.5936C31.7288 19.7651 31.8452 19.9127 31.9965 20.0172C32.1478 20.1217 32.327 20.1783 32.5109 20.1797C32.6947 20.1811 32.8748 20.1272 33.0276 20.025L38.022 16.6955L43.0163 20.025C43.1726 20.1288 43.3568 20.1822 43.5443 20.1781C43.7318 20.1739 43.9135 20.1125 44.0651 20.002C44.2166 19.8916 44.3307 19.7373 44.392 19.5601C44.4532 19.3828 44.4587 19.1911 44.4078 19.0106L42.7301 13.1403L46.8907 9.39612C47.1631 9.15031 47.2631 8.7669 47.1457 8.41927Z" fill="#E77C40"/>
<path d="M74.1569 8.41927C74.0993 8.24946 73.9932 8.10025 73.8517 7.99006C73.7102 7.87987 73.5395 7.81353 73.3608 7.79922L68.1316 7.38371L65.8688 2.3747C65.7967 2.21337 65.6795 2.07634 65.5313 1.98016C65.3831 1.88397 65.2102 1.83274 65.0335 1.83264C64.8568 1.83254 64.6839 1.88359 64.5355 1.97961C64.3872 2.07563 64.2698 2.21253 64.1976 2.37378L61.9348 7.38371L56.7056 7.79922C56.5299 7.81314 56.362 7.87738 56.2218 7.98425C56.0817 8.09113 55.9753 8.23612 55.9154 8.40187C55.8555 8.56762 55.8447 8.74712 55.8841 8.91889C55.9236 9.09066 56.0117 9.24743 56.1379 9.37044L60.0022 13.1375L58.6355 19.0555C58.594 19.2347 58.6073 19.4221 58.6737 19.5936C58.74 19.7651 58.8564 19.9127 59.0077 20.0172C59.159 20.1217 59.3382 20.1783 59.5221 20.1797C59.706 20.1811 59.886 20.1272 60.0389 20.025L65.0332 16.6955L70.0275 20.025C70.1838 20.1288 70.368 20.1822 70.5555 20.1781C70.743 20.1739 70.9248 20.1125 71.0763 20.002C71.2278 19.8916 71.3419 19.7373 71.4032 19.5601C71.4644 19.3828 71.47 19.1911 71.419 19.0106L69.7414 13.1403L73.9019 9.39612C74.1744 9.15031 74.2743 8.7669 74.1569 8.41927Z" fill="#E77C40"/>
<path d="M101.171 8.41927C101.113 8.24946 101.007 8.10025 100.865 7.99006C100.724 7.87987 100.553 7.81353 100.374 7.79922L95.1453 7.38371L92.8825 2.3747C92.8104 2.21337 92.6932 2.07634 92.545 1.98016C92.3968 1.88397 92.2239 1.83274 92.0472 1.83264C91.8705 1.83254 91.6975 1.88359 91.5492 1.97961C91.4009 2.07563 91.2835 2.21253 91.2113 2.37378L88.9485 7.38371L83.7193 7.79922C83.5436 7.81314 83.3757 7.87738 83.2355 7.98425C83.0954 8.09113 82.989 8.23612 82.9291 8.40187C82.8692 8.56762 82.8583 8.74712 82.8978 8.91889C82.9372 9.09066 83.0253 9.24743 83.1515 9.37044L87.0158 13.1375L85.6492 19.0555C85.6077 19.2347 85.621 19.4221 85.6873 19.5936C85.7537 19.7651 85.8701 19.9127 86.0214 20.0172C86.1727 20.1217 86.3519 20.1783 86.5358 20.1797C86.7196 20.1811 86.8997 20.1272 87.0525 20.025L92.0469 16.6955L97.0412 20.025C97.1975 20.1288 97.3817 20.1822 97.5692 20.1781C97.7567 20.1739 97.9384 20.1125 98.09 20.002C98.2415 19.8916 98.3556 19.7373 98.4169 19.5601C98.4781 19.3828 98.4836 19.1911 98.4327 19.0106L96.755 13.1403L100.916 9.39612C101.188 9.15031 101.288 8.7669 101.171 8.41927Z" fill="#E77C40"/>
<path d="M114.032 13.1377L112.665 19.0557C112.623 19.2349 112.636 19.4227 112.702 19.5945C112.768 19.7664 112.884 19.9143 113.036 20.0191C113.187 20.1238 113.367 20.1804 113.551 20.1814C113.735 20.1825 113.915 20.1281 114.068 20.0252L119.062 16.6956L124.056 20.0252C124.213 20.1289 124.397 20.1823 124.584 20.1782C124.772 20.1741 124.954 20.1127 125.105 20.0022C125.257 19.8917 125.371 19.7375 125.432 19.5602C125.493 19.383 125.499 19.1912 125.448 19.0107L123.77 13.1404L127.931 9.39628C128.064 9.27629 128.159 9.11988 128.204 8.94638C128.25 8.77289 128.243 8.58992 128.186 8.4201C128.128 8.25029 128.022 8.10107 127.88 7.99091C127.739 7.88075 127.568 7.81448 127.39 7.80029L122.16 7.38386L119.898 2.37485C119.825 2.21356 119.708 2.0766 119.56 1.98049C119.412 1.88439 119.239 1.83325 119.062 1.83325C118.885 1.83325 118.712 1.88439 118.564 1.98049C118.416 2.0766 118.299 2.21356 118.226 2.37485L115.964 7.38386L110.734 7.79937C110.559 7.81329 110.391 7.87753 110.251 7.98441C110.111 8.09128 110.004 8.23627 109.944 8.40202C109.884 8.56777 109.873 8.74727 109.913 8.91904C109.952 9.09081 110.04 9.24758 110.167 9.37059L114.032 13.1377ZM116.649 9.16972C116.812 9.15682 116.97 9.10012 117.104 9.00555C117.238 8.91098 117.345 8.78203 117.412 8.63222L119.062 4.98071L120.712 8.63222C120.779 8.78203 120.886 8.91098 121.02 9.00555C121.154 9.10012 121.312 9.15682 121.475 9.16972L125.119 9.45865L122.118 12.159C121.858 12.3938 121.754 12.7552 121.849 13.0927L122.999 17.1148L119.572 14.83C119.422 14.729 119.245 14.6751 119.063 14.6751C118.882 14.6751 118.705 14.729 118.555 14.83L114.974 17.2175L115.937 13.0478C115.972 12.8944 115.968 12.7346 115.923 12.5836C115.879 12.4326 115.796 12.2955 115.684 12.1856L112.897 9.46874L116.649 9.16972Z" fill="#E77C40"/>
</g>
<defs>
<clipPath id="clip0_110_399">
<rect width="130.068" height="22.0136" fill="white"/>
</clipPath>
</defs>
</svg>
