<svg width="1440" height="1468" viewBox="0 0 1440 1468" fill="none" xmlns="http://www.w3.org/2000/svg">
<g clip-path="url(#clip0_3_2118)">
<path d="M-315.005 19.3336L-299.809 88.2894L-180.38 61.9701L-235.41 1.67594L-315.005 19.3336ZM-208.846 -4.0614L-162.948 46.0971L-142.385 -18.7078L-208.846 -4.0614ZM348.715 -126.934L394.613 -76.7756L415.176 -141.581L348.715 -126.934ZM720.496 -208.866L695.883 -131.137L934.741 -183.775L879.711 -244.07L720.496 -208.866ZM1278.06 -331.738L1253.44 -254.009L1372.76 -280.304L1357.54 -349.371L1278.06 -331.738ZM422.159 -46.7522L504.625 43.5899L587.177 133.796L624.166 17.246L661.018 -99.3909L422.159 -46.7522ZM979.72 -169.625L1062.19 -79.2829L1144.74 10.9232L1181.73 -105.627L1218.58 -222.264L1099.15 -195.944L979.72 -169.625ZM125.947 30.5571L88.9832 147.218L52.1308 263.855L290.878 211.241L208.413 120.899L125.947 30.5571ZM404.727 -30.8793L367.763 85.7821L330.911 202.419L569.658 149.805L487.193 59.4628L404.727 -30.8793ZM336.08 225.343L418.545 315.685L501.098 405.891L538.086 289.341L574.939 172.704L455.398 199.048L336.08 225.343ZM614.86 163.906L697.326 254.248L779.878 344.454L816.867 227.904L853.719 111.267L734.178 137.611L614.86 163.906ZM-239.024 364.113L-193.436 570.98L-74.0063 544.661L-156.447 454.43L-239.024 364.113ZM39.7559 302.676L2.792 419.338L-34.085 535.863L204.662 483.249L122.221 393.018L39.7559 302.676ZM1433.66 -4.50544L1396.69 112.156L1359.82 228.681L1479.13 202.387L1433.66 -4.50544ZM1086.14 313.289L1251.05 493.861L1325 260.65L1205.57 286.969L1086.14 313.289ZM807.362 374.725L972.356 555.162L1046.2 321.975L926.767 348.294L807.362 374.725ZM232.345 513.359L158.504 746.546L397.252 693.932L232.345 513.359ZM511.125 451.923L437.284 685.11L676.032 632.496L511.125 451.923ZM163.561 769.494L246.027 859.836L328.579 950.043L365.568 833.493L402.42 716.856L282.991 743.175L163.561 769.494ZM999.902 585.185L1082.37 675.527L1164.92 765.733L1201.91 649.183L1238.76 532.547L1119.33 558.866L999.902 585.185ZM424.959 724.154L387.97 840.704L351.118 957.341L589.865 904.726L507.4 814.384L424.959 724.154ZM1261.3 539.845L1224.31 656.395L1187.46 773.031L1426.32 720.393L1343.85 630.051L1261.3 539.845ZM77.3701 1041.61L159.811 1131.84L242.413 1222.27L279.352 1105.5L316.229 988.975L196.8 1015.29L77.3701 1041.61ZM634.931 918.741L717.372 1008.97L799.973 1099.4L836.937 982.739L873.814 866.214L634.931 918.741ZM1175.06 811.741L1138.1 928.403L1101.22 1044.93L1340.08 992.289L1257.64 902.059L1175.06 811.741ZM617.499 934.614L580.535 1051.28L543.658 1167.8L782.405 1115.19L699.964 1024.96L617.499 934.614ZM-8.68506 1313.82L73.7559 1404.05L110.299 1444.12L176.76 1429.48L193.161 1377.62L230.038 1261.09L110.608 1287.41L-8.68506 1313.82ZM548.875 1190.95L631.316 1281.18L667.995 1321.34L734.456 1306.69L750.857 1254.83L787.734 1138.31L668.416 1164.6L548.875 1190.95ZM-26.2532 1329.61L4.13918 1467.52L83.7588 1449.97L56.2993 1419.81L-26.2532 1329.61ZM1088.87 1083.86L1051.88 1200.41L1039.64 1239.32L1198.88 1204.23L1171.42 1174.07L1088.87 1083.86ZM1646.43 960.988L1609.44 1077.54L1597.2 1116.45L1676.82 1098.9L1646.43 960.988Z" fill="#EE6DB2" fill-opacity="0.4"/>
<path d="M1158.52 -305.395L1213.52 -245.213L974.775 -192.598L999.364 -270.439L1158.6 -305.531L1158.52 -305.395ZM693.957 -203.018L673.394 -138.213L627.496 -188.371L693.957 -203.018V-203.018ZM1154.88 56.9302L1237.45 147.248L1319.9 237.478L1081.15 290.092L1118.03 173.567L1154.88 56.9302ZM-221.592 348.239L17.1556 295.625L-19.7214 412.15L-56.6853 528.812L-139.262 438.494L-221.703 348.264L-221.592 348.239ZM146.13 785.367L228.707 875.684L311.148 965.915L72.4003 1018.53L109.277 902.003L146.13 785.367ZM721.122 646.621L959.87 594.007L923.017 710.644L886.029 827.194L803.476 736.988L721.011 646.645L721.122 646.621ZM1367.65 1022.42L1450.2 1112.63L1477.66 1142.79L1318.42 1177.88L1330.66 1138.97L1367.65 1022.42V1022.42ZM827.496 1129.31L1066.24 1076.7L1029.39 1193.33L1012.99 1245.19L946.529 1259.84L909.85 1219.68L827.496 1129.31ZM404.728 -30.88L487.305 59.4375L569.746 149.668L330.999 202.282L367.876 85.7568L404.839 -30.9046L404.728 -30.88ZM-135.401 76.1198L103.347 23.5057L66.4944 140.143L29.6174 256.668L-52.9351 166.462L-135.401 76.1198V76.1198ZM511.126 451.922L593.678 542.128L676.144 632.47L437.396 685.085L474.249 568.448L511.237 451.898L511.126 451.922ZM807.314 374.502L1046.17 321.863L1009.32 438.5L972.356 555.161L889.779 464.844L807.314 374.502V374.502ZM896.279 873.177L978.832 963.383L1061.3 1053.72L822.55 1106.34L859.402 989.702L896.391 873.152L896.279 873.177ZM77.3706 1041.61L316.118 988.999L279.241 1105.52L242.413 1222.27L159.836 1131.95L77.3951 1041.72L77.3706 1041.61Z" fill="#F5D1E4" fill-opacity="0.4"/>
</g>
<defs>
<clipPath id="clip0_3_2118">
<rect width="1712.82" height="1482.93" fill="white" transform="translate(-315.005 19.333) rotate(-12.4279)"/>
</clipPath>
</defs>
</svg>
